ISO-10303-21;
HEADER;
FILE_DESCRIPTION (( 'STEP AP203' ),
    '1' );
FILE_NAME ('PB_PSU_power_module_clip_v2.step',
    '2022-09-23T18:45:13',
    ( '' ),
    ( '' ),
    'SwSTEP 2.0',
    'SolidWorks 2022',
    '' );
FILE_SCHEMA (( 'CONFIG_CONTROL_DESIGN' ));
ENDSEC;

DATA;
#1 = EDGE_CURVE ( 'NONE', #133, #51, #234, .T. ) ;
#2 = PERSON_AND_ORGANIZATION_ROLE ( 'classification_officer' ) ;
#3 = VECTOR ( 'NONE', #373, 1000.000000000000000 ) ;
#4 = CARTESIAN_POINT ( 'NONE',  ( -2.818925648462310542E-16, 1.300000000000000044, -2.000000000000000000 ) ) ;
#5 = VECTOR ( 'NONE', #427, 1000.000000000000000 ) ;
#6 = DIRECTION ( 'NONE',  ( -0.000000000000000000, -0.000000000000000000, -1.000000000000000000 ) ) ;
#7 = ORIENTED_EDGE ( 'NONE', *, *, #21, .F. ) ;
#8 = ORIENTED_EDGE ( 'NONE', *, *, #216, .T. ) ;
#9 = CALENDAR_DATE ( 2022, 23, 9 ) ;
#10 = VERTEX_POINT ( 'NONE', #128 ) ;
#11 = EDGE_CURVE ( 'NONE', #312, #408, #291, .T. ) ;
#12 = VECTOR ( 'NONE', #370, 1000.000000000000114 ) ;
#13 = CALENDAR_DATE ( 2022, 23, 9 ) ;
#14 = CARTESIAN_POINT ( 'NONE',  ( 7.599999999999996980, 2.800000000000003819, 5.499999999999998224 ) ) ;
#15 = ORIENTED_EDGE ( 'NONE', *, *, #329, .T. ) ;
#16 = ADVANCED_FACE ( 'NONE', ( #211 ), #411, .F. ) ;
#17 = CARTESIAN_POINT ( 'NONE',  ( 4.400000000000008349, 6.000000000000004441, -2.300000000000007372 ) ) ;
#18 = LOCAL_TIME ( 20, 45, 13.00000000000000000, #500 ) ;
#19 = CARTESIAN_POINT ( 'NONE',  ( 8.099999999999999645, 2.300000000000000266, -6.000000000000000000 ) ) ;
#20 = DIRECTION ( 'NONE',  ( -1.000000000000000000, -4.723256989045762203E-16, 0.000000000000000000 ) ) ;
#21 = EDGE_CURVE ( 'NONE', #312, #221, #416, .T. ) ;
#22 = ORIENTED_EDGE ( 'NONE', *, *, #210, .F. ) ;
#23 = CARTESIAN_POINT ( 'NONE',  ( 4.300000000000000711, -1.734723475976807094E-15, 0.000000000000000000 ) ) ;
#24 = CARTESIAN_POINT ( 'NONE',  ( -2.000000000000000000, 1.299999999999999600, 6.000000000000000000 ) ) ;
#25 = ORIENTED_EDGE ( 'NONE', *, *, #79, .T. ) ;
#26 = SECURITY_CLASSIFICATION ( '', '', #406 ) ;
#27 = FACE_OUTER_BOUND ( 'NONE', #209, .T. ) ;
#28 = LINE ( 'NONE', #344, #325 ) ;
#29 = LINE ( 'NONE', #17, #365 ) ;
#30 = DATE_AND_TIME ( #462, #18 ) ;
#31 = CARTESIAN_POINT ( 'NONE',  ( 4.300000000000000711, -1.734723475976807094E-15, 0.000000000000000000 ) ) ;
#32 = PRODUCT_DEFINITION_SHAPE ( 'NONE', 'NONE',  #149 ) ;
#33 = CARTESIAN_POINT ( 'NONE',  ( -2.000000000000000000, 2.799999999999999378, 6.000000000000000000 ) ) ;
#34 = ADVANCED_FACE ( 'NONE', ( #377 ), #376, .F. ) ;
#35 = DIRECTION ( 'NONE',  ( 0.000000000000000000, 0.000000000000000000, -1.000000000000000000 ) ) ;
#36 = ORIENTED_EDGE ( 'NONE', *, *, #301, .F. ) ;
#37 = ORIENTED_EDGE ( 'NONE', *, *, #420, .F. ) ;
#38 = VECTOR ( 'NONE', #385, 1000.000000000000000 ) ;
#39 = DATE_AND_TIME ( #354, #271 ) ;
#40 = ORIENTED_EDGE ( 'NONE', *, *, #309, .F. ) ;
#41 = VECTOR ( 'NONE', #439, 1000.000000000000000 ) ;
#42 = DIRECTION ( 'NONE',  ( -1.511909628576979671E-17, 1.000000000000000000, 0.000000000000000000 ) ) ;
#43 = ORIENTED_EDGE ( 'NONE', *, *, #57, .T. ) ;
#44 = DIRECTION ( 'NONE',  ( 4.723256989045762203E-16, -1.000000000000000000, 0.000000000000000000 ) ) ;
#45 = FACE_OUTER_BOUND ( 'NONE', #240, .T. ) ;
#46 = DIRECTION ( 'NONE',  ( -0.000000000000000000, -0.000000000000000000, -1.000000000000000000 ) ) ;
#47 = DIRECTION ( 'NONE',  ( -1.000000000000000000, -3.608224830031757770E-16, 0.000000000000000000 ) ) ;
#48 = ORIENTED_EDGE ( 'NONE', *, *, #509, .F. ) ;
#49 = VECTOR ( 'NONE', #154, 1000.000000000000000 ) ;
#50 = LINE ( 'NONE', #479, #310 ) ;
#51 = VERTEX_POINT ( 'NONE', #413 ) ;
#52 = EDGE_CURVE ( 'NONE', #477, #10, #417, .T. ) ;
#53 = ORIENTED_EDGE ( 'NONE', *, *, #126, .T. ) ;
#54 = VECTOR ( 'NONE', #450, 1000.000000000000000 ) ;
#55 = LINE ( 'NONE', #129, #404 ) ;
#56 = AXIS2_PLACEMENT_3D ( 'NONE', #33, #44, #199 ) ;
#57 = EDGE_CURVE ( 'NONE', #468, #441, #225, .T. ) ;
#58 = DIRECTION ( 'NONE',  ( -0.5773502691896249539, 0.5773502691896270633, 0.5773502691896251759 ) ) ;
#59 = PRODUCT_RELATED_PRODUCT_CATEGORY ( 'detail', '', ( #281 ) ) ;
#60 = AXIS2_PLACEMENT_3D ( 'NONE', #372, #297, #20 ) ;
#61 = CARTESIAN_POINT ( 'NONE',  ( 0.000000000000000000, 0.000000000000000000, 6.000000000000000000 ) ) ;
#62 = CARTESIAN_POINT ( 'NONE',  ( 6.000000000000001776, -1.121325254871407869E-15, 2.081899558550501759E-16 ) ) ;
#63 = PLANE ( 'NONE',  #60 ) ;
#64 = DIRECTION ( 'NONE',  ( 1.000000000000000000, 0.000000000000000000, 0.000000000000000000 ) ) ;
#65 = ORIENTED_EDGE ( 'NONE', *, *, #202, .T. ) ;
#66 = DATE_AND_TIME ( #514, #357 ) ;
#67 = CARTESIAN_POINT ( 'NONE',  ( -4.336808689942017736E-16, 2.800000000000000266, -5.499999999999998224 ) ) ;
#68 = ORIENTED_EDGE ( 'NONE', *, *, #483, .F. ) ;
#69 = ADVANCED_FACE ( 'NONE', ( #339 ), #63, .F. ) ;
#70 = DIRECTION ( 'NONE',  ( 1.000000000000000000, 1.511909628576979671E-17, -0.000000000000000000 ) ) ;
#71 = DIRECTION ( 'NONE',  ( -1.000000000000000000, -4.723256989045762203E-16, 0.000000000000000000 ) ) ;
#72 = DIRECTION ( 'NONE',  ( 0.000000000000000000, 0.000000000000000000, -1.000000000000000000 ) ) ;
#73 = PLANE ( 'NONE',  #56 ) ;
#74 = VERTEX_POINT ( 'NONE', #136 ) ;
#75 = PLANE ( 'NONE',  #347 ) ;
#76 = ORIENTED_EDGE ( 'NONE', *, *, #301, .T. ) ;
#77 = AXIS2_PLACEMENT_3D ( 'NONE', #180, #330, #488 ) ;
#78 = COORDINATED_UNIVERSAL_TIME_OFFSET ( 1, 0, .AHEAD. ) ;
#79 = EDGE_CURVE ( 'NONE', #51, #362, #186, .T. ) ;
#80 = DIRECTION ( 'NONE',  ( -3.339847046241007248E-16, 0.7071067811865462405, -0.7071067811865489050 ) ) ;
#81 = COORDINATED_UNIVERSAL_TIME_OFFSET ( 1, 0, .AHEAD. ) ;
#82 = DIRECTION ( 'NONE',  ( -3.608224830031757770E-16, 1.000000000000000000, 0.000000000000000000 ) ) ;
#83 = APPROVAL ( #363, 'UNSPECIFIED' ) ;
#84 = FACE_OUTER_BOUND ( 'NONE', #510, .T. ) ;
#85 = ADVANCED_BREP_SHAPE_REPRESENTATION ( 'PB_PSU_power_module_clip_v2', ( #356, #98 ), #205 ) ;
#86 = EDGE_CURVE ( 'NONE', #221, #358, #334, .T. ) ;
#87 = EDGE_LOOP ( 'NONE', ( #175, #235, #15, #332 ) ) ;
#88 = DIRECTION ( 'NONE',  ( 0.000000000000000000, 0.000000000000000000, 1.000000000000000000 ) ) ;
#89 = EDGE_CURVE ( 'NONE', #178, #140, #29, .T. ) ;
#90 = DIRECTION ( 'NONE',  ( 0.5773502691896249539, -0.5773502691896270633, 0.5773502691896251759 ) ) ;
#91 = ORIENTED_EDGE ( 'NONE', *, *, #292, .F. ) ;
#92 = VECTOR ( 'NONE', #470, 1000.000000000000000 ) ;
#93 = DIRECTION ( 'NONE',  ( -1.000000000000000000, 0.000000000000000000, 0.000000000000000000 ) ) ;
#94 = LINE ( 'NONE', #24, #142 ) ;
#95 = CARTESIAN_POINT ( 'NONE',  ( -6.071532165918833705E-16, 2.800000000000004263, -2.000000000000000000 ) ) ;
#96 = LINE ( 'NONE', #259, #506 ) ;
#97 = LINE ( 'NONE', #260, #197 ) ;
#98 = AXIS2_PLACEMENT_3D ( 'NONE', #315, #152, #511 ) ;
#99 = ORIENTED_EDGE ( 'NONE', *, *, #369, .F. ) ;
#100 = EDGE_CURVE ( 'NONE', #74, #408, #494, .T. ) ;
#101 = CARTESIAN_POINT ( 'NONE',  ( 2.600000000000000089, -2.348121697082206320E-15, 0.000000000000000000 ) ) ;
#102 = DESIGN_CONTEXT ( 'detailed design', #170, 'design' ) ;
#103 = CARTESIAN_POINT ( 'NONE',  ( -2.000000000000000000, 2.299999999999996270, 6.000000000000000000 ) ) ;
#104 = PERSON_AND_ORGANIZATION ( #327, #466 ) ;
#105 = CARTESIAN_POINT ( 'NONE',  ( 8.099999999999999645, 2.300000000000000266, -6.000000000000000000 ) ) ;
#106 = CC_DESIGN_PERSON_AND_ORGANIZATION_ASSIGNMENT ( #503, #212, ( #236 ) ) ;
#107 = VECTOR ( 'NONE', #213, 1000.000000000000000 ) ;
#108 = AXIS2_PLACEMENT_3D ( 'NONE', #341, #82, #243 ) ;
#109 = VECTOR ( 'NONE', #169, 1000.000000000000000 ) ;
#110 = EDGE_LOOP ( 'NONE', ( #123, #328, #421, #7 ) ) ;
#111 = CARTESIAN_POINT ( 'NONE',  ( -2.000000000000000000, 1.299999999999999600, 6.000000000000000000 ) ) ;
#112 = CC_DESIGN_DATE_AND_TIME_ASSIGNMENT ( #130, #251, ( #26 ) ) ;
#113 = VERTEX_POINT ( 'NONE', #305 ) ;
#114 = PERSON_AND_ORGANIZATION ( #327, #466 ) ;
#115 = DIRECTION ( 'NONE',  ( -3.439089291124018093E-17, 0.000000000000000000, 1.000000000000000000 ) ) ;
#116 = ORIENTED_EDGE ( 'NONE', *, *, #86, .T. ) ;
#117 = DIRECTION ( 'NONE',  ( 1.000000000000000000, 0.000000000000000000, -0.000000000000000000 ) ) ;
#118 = AXIS2_PLACEMENT_3D ( 'NONE', #501, #150, #476 ) ;
#119 = VECTOR ( 'NONE', #492, 1000.000000000000000 ) ;
#120 = DIRECTION ( 'NONE',  ( 1.000000000000000000, 4.723256989045762203E-16, 0.000000000000000000 ) ) ;
#121 = ORIENTED_EDGE ( 'NONE', *, *, #172, .F. ) ;
#122 = CARTESIAN_POINT ( 'NONE',  ( -2.000000000000000000, 1.299999999999999600, -2.000000000000000000 ) ) ;
#123 = ORIENTED_EDGE ( 'NONE', *, *, #11, .T. ) ;
#124 = COORDINATED_UNIVERSAL_TIME_OFFSET ( 1, 0, .AHEAD. ) ;
#125 = EDGE_LOOP ( 'NONE', ( #285, #431, #425, #244 ) ) ;
#126 = EDGE_CURVE ( 'NONE', #10, #312, #94, .T. ) ;
#127 = AXIS2_PLACEMENT_3D ( 'NONE', #438, #72, #423 ) ;
#128 = CARTESIAN_POINT ( 'NONE',  ( -2.000000000000000000, 2.299999999999996270, 6.000000000000000000 ) ) ;
#129 = CARTESIAN_POINT ( 'NONE',  ( 5.400000000000007461, 5.000000000000000888, 3.300000000000007372 ) ) ;
#130 = DATE_AND_TIME ( #9, #338 ) ;
#131 = FACE_OUTER_BOUND ( 'NONE', #390, .T. ) ;
#132 = ADVANCED_FACE ( 'NONE', ( #220 ), #143, .F. ) ;
#133 = VERTEX_POINT ( 'NONE', #101 ) ;
#134 = CARTESIAN_POINT ( 'NONE',  ( 0.000000000000000000, 0.000000000000000000, -6.000000000000000000 ) ) ;
#135 = DIRECTION ( 'NONE',  ( -1.000000000000000000, -4.723256989045762203E-16, 0.000000000000000000 ) ) ;
#136 = CARTESIAN_POINT ( 'NONE',  ( -2.000000000000000000, 2.299999999999995826, -2.000000000000000000 ) ) ;
#137 = DIRECTION ( 'NONE',  ( 0.000000000000000000, 0.000000000000000000, -1.000000000000000000 ) ) ;
#138 = LINE ( 'NONE', #300, #403 ) ;
#139 = APPROVAL ( #430, 'UNSPECIFIED' ) ;
#140 = VERTEX_POINT ( 'NONE', #461 ) ;
#141 = CARTESIAN_POINT ( 'NONE',  ( 8.099999999999999645, 2.300000000000000266, 6.000000000000000000 ) ) ;
#142 = VECTOR ( 'NONE', #498, 1000.000000000000000 ) ;
#143 = PLANE ( 'NONE',  #434 ) ;
#144 = ORIENTED_EDGE ( 'NONE', *, *, #472, .F. ) ;
#145 = CARTESIAN_POINT ( 'NONE',  ( -6.071532165918833705E-16, 2.800000000000004263, -2.000000000000000000 ) ) ;
#146 = APPLICATION_CONTEXT ( 'configuration controlled 3d designs of mechanical parts and assemblies' ) ;
#147 = ORIENTED_EDGE ( 'NONE', *, *, #453, .F. ) ;
#148 = LINE ( 'NONE', #388, #289 ) ;
#149 = PRODUCT_DEFINITION ( 'UNKNOWN', '', #236, #102 ) ;
#150 = DIRECTION ( 'NONE',  ( -3.608224830031757770E-16, 1.000000000000000000, 0.000000000000000000 ) ) ;
#151 = VERTEX_POINT ( 'NONE', #61 ) ;
#152 = DIRECTION ( 'NONE',  ( 0.000000000000000000, 0.000000000000000000, 1.000000000000000000 ) ) ;
#153 = CC_DESIGN_PERSON_AND_ORGANIZATION_ASSIGNMENT ( #171, #2, ( #26 ) ) ;
#154 = DIRECTION ( 'NONE',  ( -1.000000000000000000, -2.168404344971009361E-16, 0.000000000000000000 ) ) ;
#155 = VERTEX_POINT ( 'NONE', #215 ) ;
#156 = CC_DESIGN_APPROVAL ( #139, ( #149 ) ) ;
#157 = EDGE_LOOP ( 'NONE', ( #43, #242, #68, #200 ) ) ;
#158 = DIRECTION ( 'NONE',  ( -1.000000000000000000, 0.000000000000000000, 0.000000000000000000 ) ) ;
#159 = ORIENTED_EDGE ( 'NONE', *, *, #447, .F. ) ;
#160 = EDGE_CURVE ( 'NONE', #10, #74, #493, .T. ) ;
#161 = ORIENTED_EDGE ( 'NONE', *, *, #126, .F. ) ;
#162 = APPROVAL_DATE_TIME ( #39, #139 ) ;
#163 = PLANE ( 'NONE',  #249 ) ;
#164 = CARTESIAN_POINT ( 'NONE',  ( 8.099999999999999645, 2.800000000000004263, -6.000000000000000000 ) ) ;
#165 =( NAMED_UNIT ( * ) PLANE_ANGLE_UNIT ( ) SI_UNIT ( $, .RADIAN. ) );
#166 = CARTESIAN_POINT ( 'NONE',  ( -4.695896449469226468E-16, 2.800000000000004263, -6.000000000000000000 ) ) ;
#167 = VECTOR ( 'NONE', #452, 1000.000000000000000 ) ;
#168 = CIRCLE ( 'NONE', #108, 1.700000000000001066 ) ;
#169 = DIRECTION ( 'NONE',  ( -1.000000000000000000, -2.168404344971009361E-16, 0.000000000000000000 ) ) ;
#170 = APPLICATION_CONTEXT ( 'configuration controlled 3d designs of mechanical parts and assemblies' ) ;
#171 = PERSON_AND_ORGANIZATION ( #327, #466 ) ;
#172 = EDGE_CURVE ( 'NONE', #311, #468, #491, .T. ) ;
#173 = LINE ( 'NONE', #322, #489 ) ;
#174 = DIRECTION ( 'NONE',  ( -3.608224830031757770E-16, 1.000000000000000000, 0.000000000000000000 ) ) ;
#175 = ORIENTED_EDGE ( 'NONE', *, *, #79, .F. ) ;
#176 = ORIENTED_EDGE ( 'NONE', *, *, #414, .F. ) ;
#177 = VECTOR ( 'NONE', #70, 1000.000000000000000 ) ;
#178 = VERTEX_POINT ( 'NONE', #19 ) ;
#179 = APPROVAL_ROLE ( '' ) ;
#180 = CARTESIAN_POINT ( 'NONE',  ( 0.000000000000000000, 0.000000000000000000, 6.000000000000000000 ) ) ;
#181 = DIRECTION ( 'NONE',  ( 1.000000000000000000, 4.723256989045762203E-16, 0.000000000000000000 ) ) ;
#182 = CARTESIAN_POINT ( 'NONE',  ( -2.000000000000000444, 2.800000000000003819, -2.000000000000000000 ) ) ;
#183 = EDGE_CURVE ( 'NONE', #513, #358, #219, .T. ) ;
#184 = DIRECTION ( 'NONE',  ( 2.168404344971008868E-16, -1.000000000000000000, -0.000000000000000000 ) ) ;
#185 = ORIENTED_EDGE ( 'NONE', *, *, #483, .T. ) ;
#186 = LINE ( 'NONE', #62, #336 ) ;
#187 = EDGE_LOOP ( 'NONE', ( #448, #317, #53, #360, #387, #185 ) ) ;
#188 = DIRECTION ( 'NONE',  ( -3.608224830031758263E-16, 1.000000000000000000, -0.000000000000000000 ) ) ;
#189 = CC_DESIGN_SECURITY_CLASSIFICATION ( #26, ( #236 ) ) ;
#190 = EDGE_CURVE ( 'NONE', #270, #311, #96, .T. ) ;
#191 = APPROVAL_STATUS ( 'not_yet_approved' ) ;
#192 = CARTESIAN_POINT ( 'NONE',  ( -1.443289932012703552E-16, 1.300000000000000044, 6.000000000000000000 ) ) ;
#193 = FACE_BOUND ( 'NONE', #418, .T. ) ;
#194 = FACE_OUTER_BOUND ( 'NONE', #87, .T. ) ;
#195 = DIRECTION ( 'NONE',  ( 1.000000000000000000, 4.723256989045762203E-16, 0.000000000000000000 ) ) ;
#196 = ORIENTED_EDGE ( 'NONE', *, *, #472, .T. ) ;
#197 = VECTOR ( 'NONE', #6, 1000.000000000000000 ) ;
#198 = EDGE_LOOP ( 'NONE', ( #374, #99, #428, #8, #496 ) ) ;
#199 = DIRECTION ( 'NONE',  ( 1.000000000000000000, 4.723256989045762203E-16, 0.000000000000000000 ) ) ;
#200 = ORIENTED_EDGE ( 'NONE', *, *, #414, .T. ) ;
#201 = CARTESIAN_POINT ( 'NONE',  ( -1.443289932012703552E-16, 1.300000000000000044, 6.000000000000000000 ) ) ;
#202 = EDGE_CURVE ( 'NONE', #178, #477, #138, .T. ) ;
#203 = CYLINDRICAL_SURFACE ( 'NONE', #337, 1.700000000000001066 ) ;
#204 = ADVANCED_FACE ( 'NONE', ( #432 ), #307, .F. ) ;
#205 =( GEOMETRIC_REPRESENTATION_CONTEXT ( 3 ) GLOBAL_UNCERTAINTY_ASSIGNED_CONTEXT ( ( #206 ) ) GLOBAL_UNIT_ASSIGNED_CONTEXT ( ( #422, #165, #228 ) ) REPRESENTATION_CONTEXT ( 'NONE', 'WORKASPACE' ) );
#206 = UNCERTAINTY_MEASURE_WITH_UNIT (LENGTH_MEASURE( 1.000000000000000082E-05 ), #422, 'distance_accuracy_value', 'NONE');
#207 = EDGE_LOOP ( 'NONE', ( #265, #144, #224, #36 ) ) ;
#208 = PERSON_AND_ORGANIZATION_ROLE ( 'design_supplier' ) ;
#209 = EDGE_LOOP ( 'NONE', ( #196, #247, #502, #399, #272, #368 ) ) ;
#210 = EDGE_CURVE ( 'NONE', #270, #513, #283, .T. ) ;
#211 = FACE_OUTER_BOUND ( 'NONE', #326, .T. ) ;
#212 = PERSON_AND_ORGANIZATION_ROLE ( 'creator' ) ;
#213 = DIRECTION ( 'NONE',  ( -0.000000000000000000, -0.000000000000000000, -1.000000000000000000 ) ) ;
#214 = LINE ( 'NONE', #294, #119 ) ;
#215 = CARTESIAN_POINT ( 'NONE',  ( -1.499999999999994227, 2.800000000000003819, -2.000000000000000000 ) ) ;
#216 = EDGE_CURVE ( 'NONE', #358, #408, #355, .T. ) ;
#217 = DIRECTION ( 'NONE',  ( -3.608224830031757770E-16, 1.000000000000000000, 0.000000000000000000 ) ) ;
#218 = CC_DESIGN_APPROVAL ( #83, ( #26 ) ) ;
#219 = LINE ( 'NONE', #145, #167 ) ;
#220 = FACE_OUTER_BOUND ( 'NONE', #227, .T. ) ;
#221 = VERTEX_POINT ( 'NONE', #314 ) ;
#222 = CARTESIAN_POINT ( 'NONE',  ( 8.099999999999999645, 1.224646799147353454E-16, -6.000000000000000000 ) ) ;
#223 = ADVANCED_FACE ( 'NONE', ( #278 ), #75, .T. ) ;
#224 = ORIENTED_EDGE ( 'NONE', *, *, #89, .F. ) ;
#225 = LINE ( 'NONE', #222, #3 ) ;
#226 = CC_DESIGN_PERSON_AND_ORGANIZATION_ASSIGNMENT ( #485, #208, ( #236 ) ) ;
#227 = EDGE_LOOP ( 'NONE', ( #252, #320, #335, #40 ) ) ;
#228 =( NAMED_UNIT ( * ) SI_UNIT ( $, .STERADIAN. ) SOLID_ANGLE_UNIT ( ) );
#229 = CARTESIAN_POINT ( 'NONE',  ( -1.499999999999998224, 2.799999999999999822, 6.000000000000000000 ) ) ;
#230 = ORIENTED_EDGE ( 'NONE', *, *, #160, .F. ) ;
#231 = PLANE ( 'NONE',  #507 ) ;
#232 = ADVANCED_FACE ( 'NONE', ( #394 ), #435, .T. ) ;
#233 = LINE ( 'NONE', #276, #92 ) ;
#234 = CIRCLE ( 'NONE', #464, 1.700000000000001066 ) ;
#235 = ORIENTED_EDGE ( 'NONE', *, *, #1, .F. ) ;
#236 = PRODUCT_DEFINITION_FORMATION_WITH_SPECIFIED_SOURCE ( 'ANY', '', #281, .NOT_KNOWN. ) ;
#237 = PERSON_AND_ORGANIZATION_ROLE ( 'creator' ) ;
#238 = ORIENTED_EDGE ( 'NONE', *, *, #343, .F. ) ;
#239 = FACE_OUTER_BOUND ( 'NONE', #157, .T. ) ;
#240 = EDGE_LOOP ( 'NONE', ( #91, #25, #304, #444 ) ) ;
#241 = DATE_TIME_ROLE ( 'creation_date' ) ;
#242 = ORIENTED_EDGE ( 'NONE', *, *, #442, .F. ) ;
#243 = DIRECTION ( 'NONE',  ( -1.000000000000000000, -2.551063935260009012E-16, 0.000000000000000000 ) ) ;
#244 = ORIENTED_EDGE ( 'NONE', *, *, #361, .F. ) ;
#245 = EDGE_CURVE ( 'NONE', #362, #113, #168, .T. ) ;
#246 = CARTESIAN_POINT ( 'NONE',  ( 8.099999999999999645, 1.224646799147353454E-16, 6.000000000000000000 ) ) ;
#247 = ORIENTED_EDGE ( 'NONE', *, *, #210, .T. ) ;
#248 = VECTOR ( 'NONE', #184, 1000.000000000000000 ) ;
#249 = AXIS2_PLACEMENT_3D ( 'NONE', #398, #42, #400 ) ;
#250 = CARTESIAN_POINT ( 'NONE',  ( 4.300000000000000711, -1.734723475976807094E-15, 0.000000000000000000 ) ) ;
#251 = DATE_TIME_ROLE ( 'classification_date' ) ;
#252 = ORIENTED_EDGE ( 'NONE', *, *, #460, .T. ) ;
#253 = CARTESIAN_POINT ( 'NONE',  ( -2.000000000000000000, 2.299999999999996270, -2.000000000000000000 ) ) ;
#254 = AXIS2_PLACEMENT_3D ( 'NONE', #402, #359, #137 ) ;
#255 = ORIENTED_EDGE ( 'NONE', *, *, #274, .F. ) ;
#256 = CARTESIAN_POINT ( 'NONE',  ( 7.599999999999996980, 2.800000000000003819, 6.000000000000000000 ) ) ;
#257 = ADVANCED_FACE ( 'NONE', ( #193, #239 ), #163, .F. ) ;
#258 = PLANE ( 'NONE',  #254 ) ;
#259 = CARTESIAN_POINT ( 'NONE',  ( -4.336808689942017736E-16, 2.800000000000000266, -5.499999999999998224 ) ) ;
#260 = CARTESIAN_POINT ( 'NONE',  ( 0.000000000000000000, 0.000000000000000000, 6.000000000000000000 ) ) ;
#261 = CC_DESIGN_APPROVAL ( #296, ( #236 ) ) ;
#262 = DIRECTION ( 'NONE',  ( 0.000000000000000000, 0.000000000000000000, -1.000000000000000000 ) ) ;
#263 = ADVANCED_FACE ( 'NONE', ( #515 ), #508, .F. ) ;
#264 = CARTESIAN_POINT ( 'NONE',  ( -1.086349107480523768E-15, 2.299999999999996270, 6.000000000000000000 ) ) ;
#265 = ORIENTED_EDGE ( 'NONE', *, *, #190, .F. ) ;
#266 = DIRECTION ( 'NONE',  ( -0.7071067811865487940, -0.7071067811865462405, -0.000000000000000000 ) ) ;
#267 = ORIENTED_EDGE ( 'NONE', *, *, #172, .T. ) ;
#268 = DIRECTION ( 'NONE',  ( -3.608224830031758263E-16, 1.000000000000000000, -0.000000000000000000 ) ) ;
#269 = CARTESIAN_POINT ( 'NONE',  ( -2.818925648462310542E-16, 1.300000000000000044, -2.000000000000000000 ) ) ;
#270 = VERTEX_POINT ( 'NONE', #67 ) ;
#271 = LOCAL_TIME ( 20, 45, 13.00000000000000000, #78 ) ;
#272 = ORIENTED_EDGE ( 'NONE', *, *, #361, .T. ) ;
#273 = FACE_OUTER_BOUND ( 'NONE', #187, .T. ) ;
#274 = EDGE_CURVE ( 'NONE', #155, #378, #316, .T. ) ;
#275 = APPLICATION_PROTOCOL_DEFINITION ( 'international standard', 'config_control_design', 1994, #170 ) ;
#276 = CARTESIAN_POINT ( 'NONE',  ( 2.600000000000000089, -2.348121697082206320E-15, 0.000000000000000000 ) ) ;
#277 = CARTESIAN_POINT ( 'NONE',  ( 8.099999999999999645, 1.224646799147353454E-16, 6.000000000000000000 ) ) ;
#278 = FACE_OUTER_BOUND ( 'NONE', #207, .T. ) ;
#279 = CIRCLE ( 'NONE', #118, 1.700000000000001066 ) ;
#280 = AXIS2_PLACEMENT_3D ( 'NONE', #23, #268, #469 ) ;
#281 = PRODUCT ( 'PB_PSU_power_module_clip_v2', 'PB_PSU_power_module_clip_v2', '', ( #433 ) ) ;
#282 = ADVANCED_FACE ( 'NONE', ( #45 ), #203, .F. ) ;
#283 = LINE ( 'NONE', #166, #288 ) ;
#284 = CARTESIAN_POINT ( 'NONE',  ( 6.000000000000001776, 2.800000000000002487, 2.081899558550502252E-16 ) ) ;
#285 = ORIENTED_EDGE ( 'NONE', *, *, #509, .T. ) ;
#286 = DATE_AND_TIME ( #13, #367 ) ;
#287 = AXIS2_PLACEMENT_3D ( 'NONE', #419, #64, #262 ) ;
#288 = VECTOR ( 'NONE', #115, 1000.000000000000000 ) ;
#289 = VECTOR ( 'NONE', #306, 1000.000000000000114 ) ;
#290 = SHAPE_DEFINITION_REPRESENTATION ( #32, #85 ) ;
#291 = LINE ( 'NONE', #446, #107 ) ;
#292 = EDGE_CURVE ( 'NONE', #51, #133, #279, .T. ) ;
#293 = VECTOR ( 'NONE', #303, 1000.000000000000000 ) ;
#294 = CARTESIAN_POINT ( 'NONE',  ( 0.000000000000000000, 0.000000000000000000, 6.000000000000000000 ) ) ;
#295 = AXIS2_PLACEMENT_3D ( 'NONE', #364, #217, #484 ) ;
#296 = APPROVAL ( #191, 'UNSPECIFIED' ) ;
#297 = DIRECTION ( 'NONE',  ( 3.339847046241007248E-16, -0.7071067811865462405, -0.7071067811865489050 ) ) ;
#298 = CARTESIAN_POINT ( 'NONE',  ( 0.000000000000000000, 0.000000000000000000, -6.000000000000000000 ) ) ;
#299 = CARTESIAN_POINT ( 'NONE',  ( 8.099999999999999645, 2.800000000000004263, 6.000000000000000000 ) ) ;
#300 = CARTESIAN_POINT ( 'NONE',  ( 8.099999999999999645, 2.299999999999999822, 6.000000000000000000 ) ) ;
#301 = EDGE_CURVE ( 'NONE', #311, #178, #348, .T. ) ;
#302 = CIRCLE ( 'NONE', #295, 1.700000000000001066 ) ;
#303 = DIRECTION ( 'NONE',  ( 1.110223024625156540E-16, -1.000000000000000000, -0.000000000000000000 ) ) ;
#304 = ORIENTED_EDGE ( 'NONE', *, *, #245, .T. ) ;
#305 = CARTESIAN_POINT ( 'NONE',  ( 2.599999999999999201, 2.800000000000001599, 0.000000000000000000 ) ) ;
#306 = DIRECTION ( 'NONE',  ( -0.5773502691896249539, -0.5773502691896272854, 0.5773502691896249539 ) ) ;
#307 = PLANE ( 'NONE',  #380 ) ;
#308 = CARTESIAN_POINT ( 'NONE',  ( 7.599999999999996980, 2.800000000000003819, 6.000000000000000000 ) ) ;
#309 = EDGE_CURVE ( 'NONE', #437, #140, #345, .T. ) ;
#310 = VECTOR ( 'NONE', #181, 1000.000000000000000 ) ;
#311 = VERTEX_POINT ( 'NONE', #467 ) ;
#312 = VERTEX_POINT ( 'NONE', #111 ) ;
#313 = PERSON_AND_ORGANIZATION_ROLE ( 'design_owner' ) ;
#314 = CARTESIAN_POINT ( 'NONE',  ( -1.443289932012703552E-16, 1.300000000000000044, 6.000000000000000000 ) ) ;
#315 = CARTESIAN_POINT ( 'NONE',  ( 0.000000000000000000, 0.000000000000000000, 0.000000000000000000 ) ) ;
#316 = LINE ( 'NONE', #229, #38 ) ;
#317 = ORIENTED_EDGE ( 'NONE', *, *, #52, .T. ) ;
#318 = ADVANCED_FACE ( 'NONE', ( #273 ), #231, .F. ) ;
#319 = DIRECTION ( 'NONE',  ( -3.608224830031758263E-16, 1.000000000000000000, -0.000000000000000000 ) ) ;
#320 = ORIENTED_EDGE ( 'NONE', *, *, #202, .F. ) ;
#321 = COORDINATED_UNIVERSAL_TIME_OFFSET ( 1, 0, .AHEAD. ) ;
#322 = CARTESIAN_POINT ( 'NONE',  ( 8.099999999999999645, 2.800000000000004263, 6.000000000000000000 ) ) ;
#323 = CC_DESIGN_PERSON_AND_ORGANIZATION_ASSIGNMENT ( #114, #313, ( #281 ) ) ;
#324 = CLOSED_SHELL ( 'NONE', ( #282, #257, #353, #495, #34, #263, #16, #318, #232, #478, #375, #69, #223, #132, #204 ) ) ;
#325 = VECTOR ( 'NONE', #71, 1000.000000000000000 ) ;
#326 = EDGE_LOOP ( 'NONE', ( #267, #176, #238, #116, #396, #22, #350 ) ) ;
#327 = PERSON ( 'UNSPECIFIED', 'UNSPECIFIED', 'UNSPECIFIED', ('UNSPECIFIED'), ('UNSPECIFIED'), ('UNSPECIFIED') ) ;
#328 = ORIENTED_EDGE ( 'NONE', *, *, #216, .F. ) ;
#329 = EDGE_CURVE ( 'NONE', #133, #113, #233, .T. ) ;
#330 = DIRECTION ( 'NONE',  ( 1.000000000000000000, 1.110223024625156540E-16, -0.000000000000000000 ) ) ;
#331 = DIRECTION ( 'NONE',  ( 0.000000000000000000, 0.000000000000000000, -1.000000000000000000 ) ) ;
#332 = ORIENTED_EDGE ( 'NONE', *, *, #453, .T. ) ;
#333 = DIRECTION ( 'NONE',  ( 1.776473752569359576E-16, -0.7071067811865489050, -0.7071067811865462405 ) ) ;
#334 = LINE ( 'NONE', #381, #393 ) ;
#335 = ORIENTED_EDGE ( 'NONE', *, *, #89, .T. ) ;
#336 = VECTOR ( 'NONE', #188, 1000.000000000000000 ) ;
#337 = AXIS2_PLACEMENT_3D ( 'NONE', #31, #319, #47 ) ;
#338 = LOCAL_TIME ( 20, 45, 13.00000000000000000, #321 ) ;
#339 = FACE_OUTER_BOUND ( 'NONE', #125, .T. ) ;
#340 = APPROVAL_ROLE ( '' ) ;
#341 = CARTESIAN_POINT ( 'NONE',  ( 4.299999999999999822, 2.800000000000002043, 0.000000000000000000 ) ) ;
#342 = APPROVAL_DATE_TIME ( #30, #296 ) ;
#343 = EDGE_CURVE ( 'NONE', #221, #151, #214, .T. ) ;
#344 = CARTESIAN_POINT ( 'NONE',  ( -2.000000000000000000, 2.799999999999999378, -5.499999999999998224 ) ) ;
#345 = LINE ( 'NONE', #308, #5 ) ;
#346 = APPLICATION_PROTOCOL_DEFINITION ( 'international standard', 'config_control_design', 1994, #146 ) ;
#347 = AXIS2_PLACEMENT_3D ( 'NONE', #351, #80, #195 ) ;
#348 = LINE ( 'NONE', #105, #497 ) ;
#349 = ORIENTED_EDGE ( 'NONE', *, *, #1, .T. ) ;
#350 = ORIENTED_EDGE ( 'NONE', *, *, #190, .T. ) ;
#351 = CARTESIAN_POINT ( 'NONE',  ( -2.000000000000000000, 2.799999999999999378, -5.499999999999998224 ) ) ;
#352 = LINE ( 'NONE', #164, #41 ) ;
#353 = ADVANCED_FACE ( 'NONE', ( #131 ), #371, .F. ) ;
#354 = CALENDAR_DATE ( 2022, 23, 9 ) ;
#355 = LINE ( 'NONE', #269, #49 ) ;
#356 = MANIFOLD_SOLID_BREP ( 'Enlèv. mat.-Extru.2', #324 ) ;
#357 = LOCAL_TIME ( 20, 45, 13.00000000000000000, #81 ) ;
#358 = VERTEX_POINT ( 'NONE', #4 ) ;
#359 = DIRECTION ( 'NONE',  ( 0.7071067811865489050, -0.7071067811865461294, 0.000000000000000000 ) ) ;
#360 = ORIENTED_EDGE ( 'NONE', *, *, #21, .T. ) ;
#361 = EDGE_CURVE ( 'NONE', #378, #437, #50, .T. ) ;
#362 = VERTEX_POINT ( 'NONE', #284 ) ;
#363 = APPROVAL_STATUS ( 'not_yet_approved' ) ;
#364 = CARTESIAN_POINT ( 'NONE',  ( 4.299999999999999822, 2.800000000000002043, 0.000000000000000000 ) ) ;
#365 = VECTOR ( 'NONE', #58, 1000.000000000000114 ) ;
#366 = AXIS2_PLACEMENT_3D ( 'NONE', #201, #463, #474 ) ;
#367 = LOCAL_TIME ( 20, 45, 13.00000000000000000, #124 ) ;
#368 = ORIENTED_EDGE ( 'NONE', *, *, #309, .T. ) ;
#369 = EDGE_CURVE ( 'NONE', #513, #155, #451, .T. ) ;
#370 = DIRECTION ( 'NONE',  ( 0.7071067811865461294, 0.7071067811865489050, -0.000000000000000000 ) ) ;
#371 = PLANE ( 'NONE',  #457 ) ;
#372 = CARTESIAN_POINT ( 'NONE',  ( -1.086349107480523768E-15, 2.299999999999996270, 6.000000000000000000 ) ) ;
#373 = DIRECTION ( 'NONE',  ( 1.000000000000000000, 1.511909628576979671E-17, -0.000000000000000000 ) ) ;
#374 = ORIENTED_EDGE ( 'NONE', *, *, #405, .T. ) ;
#375 = ADVANCED_FACE ( 'NONE', ( #84 ), #258, .F. ) ;
#376 = PLANE ( 'NONE',  #287 ) ;
#377 = FACE_OUTER_BOUND ( 'NONE', #456, .T. ) ;
#378 = VERTEX_POINT ( 'NONE', #454 ) ;
#379 = VECTOR ( 'NONE', #331, 1000.000000000000000 ) ;
#380 = AXIS2_PLACEMENT_3D ( 'NONE', #504, #512, #117 ) ;
#381 = CARTESIAN_POINT ( 'NONE',  ( -1.443289932012703552E-16, 1.300000000000000044, 6.000000000000000000 ) ) ;
#382 = CC_DESIGN_PERSON_AND_ORGANIZATION_ASSIGNMENT ( #473, #237, ( #149 ) ) ;
#383 = ORIENTED_EDGE ( 'NONE', *, *, #160, .T. ) ;
#384 = PERSON_AND_ORGANIZATION ( #327, #466 ) ;
#385 = DIRECTION ( 'NONE',  ( 0.000000000000000000, 0.000000000000000000, 1.000000000000000000 ) ) ;
#386 = ORIENTED_EDGE ( 'NONE', *, *, #57, .F. ) ;
#387 = ORIENTED_EDGE ( 'NONE', *, *, #343, .T. ) ;
#388 = CARTESIAN_POINT ( 'NONE',  ( -2.000000000000000000, 2.299999999999996270, 6.000000000000000000 ) ) ;
#389 = CARTESIAN_POINT ( 'NONE',  ( 0.000000000000000000, 0.000000000000000000, 6.000000000000000000 ) ) ;
#390 = EDGE_LOOP ( 'NONE', ( #499, #65, #37, #505 ) ) ;
#391 = APPROVAL_ROLE ( '' ) ;
#392 = ORIENTED_EDGE ( 'NONE', *, *, #292, .T. ) ;
#393 = VECTOR ( 'NONE', #458, 1000.000000000000000 ) ;
#394 = FACE_OUTER_BOUND ( 'NONE', #459, .T. ) ;
#395 = APPROVAL_PERSON_ORGANIZATION ( #104, #139, #391 ) ;
#396 = ORIENTED_EDGE ( 'NONE', *, *, #183, .F. ) ;
#397 = LINE ( 'NONE', #277, #177 ) ;
#398 = CARTESIAN_POINT ( 'NONE',  ( 8.099999999999999645, 1.224646799147353454E-16, 6.000000000000000000 ) ) ;
#399 = ORIENTED_EDGE ( 'NONE', *, *, #274, .T. ) ;
#400 = DIRECTION ( 'NONE',  ( -1.000000000000000000, -1.511909628576979671E-17, 0.000000000000000000 ) ) ;
#401 = ORIENTED_EDGE ( 'NONE', *, *, #100, .T. ) ;
#402 = CARTESIAN_POINT ( 'NONE',  ( -2.000000000000000000, 2.299999999999996270, 6.000000000000000000 ) ) ;
#403 = VECTOR ( 'NONE', #455, 1000.000000000000000 ) ;
#404 = VECTOR ( 'NONE', #90, 1000.000000000000114 ) ;
#405 = EDGE_CURVE ( 'NONE', #74, #155, #440, .T. ) ;
#406 = SECURITY_CLASSIFICATION_LEVEL ( 'unclassified' ) ;
#407 = DIRECTION ( 'NONE',  ( -1.000000000000000000, -3.608224830031757770E-16, 0.000000000000000000 ) ) ;
#408 = VERTEX_POINT ( 'NONE', #122 ) ;
#409 = VERTEX_POINT ( 'NONE', #246 ) ;
#410 = APPROVAL_PERSON_ORGANIZATION ( #480, #83, #179 ) ;
#411 = PLANE ( 'NONE',  #77 ) ;
#412 = DIRECTION ( 'NONE',  ( 0.000000000000000000, 0.000000000000000000, -1.000000000000000000 ) ) ;
#413 = CARTESIAN_POINT ( 'NONE',  ( 6.000000000000001776, -1.121325254871407869E-15, 2.081899558550502252E-16 ) ) ;
#414 = EDGE_CURVE ( 'NONE', #151, #468, #97, .T. ) ;
#415 = CYLINDRICAL_SURFACE ( 'NONE', #280, 1.700000000000001066 ) ;
#416 = LINE ( 'NONE', #192, #54 ) ;
#417 = LINE ( 'NONE', #264, #487 ) ;
#418 = EDGE_LOOP ( 'NONE', ( #349, #392 ) ) ;
#419 = CARTESIAN_POINT ( 'NONE',  ( -2.000000000000000000, 1.299999999999999600, 6.000000000000000000 ) ) ;
#420 = EDGE_CURVE ( 'NONE', #409, #477, #173, .T. ) ;
#421 = ORIENTED_EDGE ( 'NONE', *, *, #86, .F. ) ;
#422 =( LENGTH_UNIT ( ) NAMED_UNIT ( * ) SI_UNIT ( .MILLI., .METRE. ) );
#423 = DIRECTION ( 'NONE',  ( -1.000000000000000000, 0.000000000000000000, 0.000000000000000000 ) ) ;
#424 = EDGE_LOOP ( 'NONE', ( #147, #429 ) ) ;
#425 = ORIENTED_EDGE ( 'NONE', *, *, #460, .F. ) ;
#426 = FACE_BOUND ( 'NONE', #424, .T. ) ;
#427 = DIRECTION ( 'NONE',  ( 0.000000000000000000, 0.000000000000000000, -1.000000000000000000 ) ) ;
#428 = ORIENTED_EDGE ( 'NONE', *, *, #183, .T. ) ;
#429 = ORIENTED_EDGE ( 'NONE', *, *, #245, .F. ) ;
#430 = APPROVAL_STATUS ( 'not_yet_approved' ) ;
#431 = ORIENTED_EDGE ( 'NONE', *, *, #52, .F. ) ;
#432 = FACE_OUTER_BOUND ( 'NONE', #198, .T. ) ;
#433 = MECHANICAL_CONTEXT ( 'NONE', #146, 'mechanical' ) ;
#434 = AXIS2_PLACEMENT_3D ( 'NONE', #256, #266, #412 ) ;
#435 = PLANE ( 'NONE',  #127 ) ;
#436 = VECTOR ( 'NONE', #46, 1000.000000000000000 ) ;
#437 = VERTEX_POINT ( 'NONE', #14 ) ;
#438 = CARTESIAN_POINT ( 'NONE',  ( 0.000000000000000000, 0.000000000000000000, -6.000000000000000000 ) ) ;
#439 = DIRECTION ( 'NONE',  ( -0.000000000000000000, 1.000000000000000000, -0.000000000000000000 ) ) ;
#440 = LINE ( 'NONE', #253, #12 ) ;
#441 = VERTEX_POINT ( 'NONE', #449 ) ;
#442 = EDGE_CURVE ( 'NONE', #409, #441, #443, .T. ) ;
#443 = LINE ( 'NONE', #482, #436 ) ;
#444 = ORIENTED_EDGE ( 'NONE', *, *, #329, .F. ) ;
#445 = APPROVAL_PERSON_ORGANIZATION ( #384, #296, #340 ) ;
#446 = CARTESIAN_POINT ( 'NONE',  ( -2.000000000000000000, 1.299999999999999600, 6.000000000000000000 ) ) ;
#447 = EDGE_CURVE ( 'NONE', #441, #178, #352, .T. ) ;
#448 = ORIENTED_EDGE ( 'NONE', *, *, #420, .T. ) ;
#449 = CARTESIAN_POINT ( 'NONE',  ( 8.099999999999999645, 1.224646799147353454E-16, -6.000000000000000000 ) ) ;
#450 = DIRECTION ( 'NONE',  ( 1.000000000000000000, 2.168404344971008868E-16, -0.000000000000000000 ) ) ;
#451 = LINE ( 'NONE', #95, #109 ) ;
#452 = DIRECTION ( 'NONE',  ( 2.168404344971008868E-16, -1.000000000000000000, -0.000000000000000000 ) ) ;
#453 = EDGE_CURVE ( 'NONE', #113, #362, #302, .T. ) ;
#454 = CARTESIAN_POINT ( 'NONE',  ( -1.499999999999998224, 2.799999999999999822, 5.499999999999998224 ) ) ;
#455 = DIRECTION ( 'NONE',  ( 0.000000000000000000, 0.000000000000000000, 1.000000000000000000 ) ) ;
#456 = EDGE_LOOP ( 'NONE', ( #383, #401, #471, #161 ) ) ;
#457 = AXIS2_PLACEMENT_3D ( 'NONE', #299, #93, #88 ) ;
#458 = DIRECTION ( 'NONE',  ( -0.000000000000000000, -0.000000000000000000, -1.000000000000000000 ) ) ;
#459 = EDGE_LOOP ( 'NONE', ( #121, #76, #159, #386 ) ) ;
#460 = EDGE_CURVE ( 'NONE', #437, #477, #55, .T. ) ;
#461 = CARTESIAN_POINT ( 'NONE',  ( 7.599999999999996980, 2.800000000000003819, -5.499999999999998224 ) ) ;
#462 = CALENDAR_DATE ( 2022, 23, 9 ) ;
#463 = DIRECTION ( 'NONE',  ( -2.168404344971008868E-16, 1.000000000000000000, 0.000000000000000000 ) ) ;
#464 = AXIS2_PLACEMENT_3D ( 'NONE', #250, #174, #407 ) ;
#465 = CARTESIAN_POINT ( 'NONE',  ( -6.071532165918833705E-16, 2.800000000000004263, -2.000000000000000000 ) ) ;
#466 = ORGANIZATION ( 'UNSPECIFIED', 'UNSPECIFIED', '' ) ;
#467 = CARTESIAN_POINT ( 'NONE',  ( -3.611694276983704285E-16, 2.299999999999996270, -6.000000000000000000 ) ) ;
#468 = VERTEX_POINT ( 'NONE', #134 ) ;
#469 = DIRECTION ( 'NONE',  ( -1.000000000000000000, -3.608224830031757770E-16, 0.000000000000000000 ) ) ;
#470 = DIRECTION ( 'NONE',  ( -3.608224830031758263E-16, 1.000000000000000000, -0.000000000000000000 ) ) ;
#471 = ORIENTED_EDGE ( 'NONE', *, *, #11, .F. ) ;
#472 = EDGE_CURVE ( 'NONE', #140, #270, #28, .T. ) ;
#473 = PERSON_AND_ORGANIZATION ( #327, #466 ) ;
#474 = DIRECTION ( 'NONE',  ( -1.000000000000000000, -2.168404344971008868E-16, 0.000000000000000000 ) ) ;
#475 = ORIENTED_EDGE ( 'NONE', *, *, #405, .F. ) ;
#476 = DIRECTION ( 'NONE',  ( -1.000000000000000000, -3.608224830031757770E-16, 0.000000000000000000 ) ) ;
#477 = VERTEX_POINT ( 'NONE', #141 ) ;
#478 = ADVANCED_FACE ( 'NONE', ( #194 ), #415, .F. ) ;
#479 = CARTESIAN_POINT ( 'NONE',  ( -2.000000000000000000, 2.799999999999999378, 5.499999999999998224 ) ) ;
#480 = PERSON_AND_ORGANIZATION ( #327, #466 ) ;
#481 = APPROVAL_DATE_TIME ( #286, #83 ) ;
#482 = CARTESIAN_POINT ( 'NONE',  ( 8.099999999999999645, 1.224646799147353454E-16, 6.000000000000000000 ) ) ;
#483 = EDGE_CURVE ( 'NONE', #151, #409, #397, .T. ) ;
#484 = DIRECTION ( 'NONE',  ( -1.000000000000000000, -2.551063935260009012E-16, 0.000000000000000000 ) ) ;
#485 = PERSON_AND_ORGANIZATION ( #327, #466 ) ;
#486 = DIRECTION ( 'NONE',  ( -0.000000000000000000, 1.000000000000000000, -0.000000000000000000 ) ) ;
#487 = VECTOR ( 'NONE', #135, 1000.000000000000000 ) ;
#488 = DIRECTION ( 'NONE',  ( -1.110223024625156540E-16, 1.000000000000000000, 0.000000000000000000 ) ) ;
#489 = VECTOR ( 'NONE', #486, 1000.000000000000000 ) ;
#490 = CC_DESIGN_DATE_AND_TIME_ASSIGNMENT ( #66, #241, ( #149 ) ) ;
#491 = LINE ( 'NONE', #298, #293 ) ;
#492 = DIRECTION ( 'NONE',  ( 1.110223024625156540E-16, -1.000000000000000000, -0.000000000000000000 ) ) ;
#493 = LINE ( 'NONE', #103, #379 ) ;
#494 = LINE ( 'NONE', #182, #248 ) ;
#495 = ADVANCED_FACE ( 'NONE', ( #27, #426 ), #73, .F. ) ;
#496 = ORIENTED_EDGE ( 'NONE', *, *, #100, .F. ) ;
#497 = VECTOR ( 'NONE', #120, 1000.000000000000000 ) ;
#498 = DIRECTION ( 'NONE',  ( -0.000000000000000000, -1.000000000000000000, -0.000000000000000000 ) ) ;
#499 = ORIENTED_EDGE ( 'NONE', *, *, #447, .T. ) ;
#500 = COORDINATED_UNIVERSAL_TIME_OFFSET ( 1, 0, .AHEAD. ) ;
#501 = CARTESIAN_POINT ( 'NONE',  ( 4.300000000000000711, -1.734723475976807094E-15, 0.000000000000000000 ) ) ;
#502 = ORIENTED_EDGE ( 'NONE', *, *, #369, .T. ) ;
#503 = PERSON_AND_ORGANIZATION ( #327, #466 ) ;
#504 = CARTESIAN_POINT ( 'NONE',  ( -6.071532165918833705E-16, 2.800000000000004263, -2.000000000000000000 ) ) ;
#505 = ORIENTED_EDGE ( 'NONE', *, *, #442, .T. ) ;
#506 = VECTOR ( 'NONE', #333, 999.9999999999998863 ) ;
#507 = AXIS2_PLACEMENT_3D ( 'NONE', #389, #35, #158 ) ;
#508 = PLANE ( 'NONE',  #366 ) ;
#509 = EDGE_CURVE ( 'NONE', #378, #10, #148, .T. ) ;
#510 = EDGE_LOOP ( 'NONE', ( #475, #230, #48, #255 ) ) ;
#511 = DIRECTION ( 'NONE',  ( 1.000000000000000000, 0.000000000000000000, 0.000000000000000000 ) ) ;
#512 = DIRECTION ( 'NONE',  ( 0.000000000000000000, 0.000000000000000000, 1.000000000000000000 ) ) ;
#513 = VERTEX_POINT ( 'NONE', #465 ) ;
#514 = CALENDAR_DATE ( 2022, 23, 9 ) ;
#515 = FACE_OUTER_BOUND ( 'NONE', #110, .T. ) ;
ENDSEC;
END-ISO-10303-21;
